<svg height="73" viewBox="0 0 73 73" width="73" xmlns="http://www.w3.org/2000/svg"><g fill="none" fill-rule="nonzero"><rect fill="#fff" height="71" rx="14" stroke="#1c4666" stroke-width="2" width="71" x="1" y="1"/><g transform="translate(10 10)"><path d="m49.665536 4.75767985h-.4641639c.0012009-2.29054237-1.6686636-4.23951025-3.9323016-4.58955168-2.2636379-.35004143-4.4441931 1.00351038-5.1349078 3.18742862-.7314216.22503445-1.314908.78016707-1.5760685 1.49948144-1.9160833.42099403-3.2812501 2.11832896-3.2816387 4.08011661 0 2.30715576 1.8703192 4.17747496 4.177475 4.17747496h10.2116055c2.3071557 0 4.177475-1.8703192 4.177475-4.17747496 0-2.30715573-1.8703193-4.17747499-4.177475-4.17747499z" fill="#ebebeb"/><path d="m30.6348166 4.75767985h1.8566556v6.49829445h-1.8566556z" fill="#3775a4"/><g fill="#c0f5f9" transform="translate(5.569967 28.894202)"><path d="m20.4232111 9.28327776h1.8566555v4.64163884h-1.8566555z"/><path d="m1.85665555 12.9965889h-1.85665555v-4.64163892c-.0000085-.4467012.3181244-.83006963.75716734-.91243016l14.09607706-2.64306522v-4.7994546h1.8566556v5.56996666c.0000085.4467012-.3181244.83006962-.7571674.91243016l-14.09607705 2.64306522z"/><path d="m42.7030777 12.9965889h-1.8566556v-3.87112686l-14.096077-2.64306522c-.439043-.08236054-.7571759-.46572896-.7571674-.91243016v-5.56996666h1.8566556v4.7994546l14.096077 2.64306522c.439043.08236053.7571759.46572896.7571674.91243016z"/><path d="m20.4232111 5.56996666h1.8566555v1.85665555h-1.8566555z"/><path d="m20.4232111 0h1.8566555v3.7133111h-1.8566555z"/></g><g fill="#41dfd0"><rect height="9.283278" rx="4.641639" width="12.996589" x="20.423211" y="40.962463"/><rect height="9.283278" rx="4.641639" width="12.996589" y="40.962463"/><rect height="9.283278" rx="4.641639" width="12.996589" x="40.846422" y="40.962463"/></g><path d="m25.0648499 50.2457409 1.8566556-.9283278 1.8566556.9283278c.0000156 1.2209888.2842754 2.4252097.8302731 3.5173179l.0980546.1959932h-5.5699666l.0980546-.1959932c.5459977-1.0921082.8302575-2.2963291.8302731-3.5173179z" fill="#cbcbcb"/><path d="m33.4197999 46.5324298h-12.9965888v1.8566555c0 1.0254026.831253 1.8566556 1.8566555 1.8566556h9.2832778c1.0254025 0 1.8566555-.831253 1.8566555-1.8566556z" fill="#dbdbdb"/><rect fill="#41dfd0" height="9.283278" rx="4.641639" width="12.996589" x="12.996589" y="13.11263"/><path d="m17.6382277 22.3959076h3.7133111c.0000157 1.2209888.2842755 2.4252097.8302732 3.5173179l.0980546.1959932h-5.5699666l.0980546-.1959932c.5459976-1.0921082.8302575-2.2963291.8302731-3.5173179z" fill="#cbcbcb"/><path d="m25.9931777 18.6825965h-12.9965888v1.8566555c0 1.0254026.831253 1.8566556 1.8566555 1.8566556h9.2832778c1.0254025 0 1.8566555-.831253 1.8566555-1.8566556z" fill="#dbdbdb"/><path d="m4.64163888 50.2457409.92832778-.9283278h1.85665555l.92832777.9283278c.00001563 1.2209888.2842755 2.4252097.83027316 3.5173179l.09805462.1959932h-5.56996666l.09805462-.1959932c.54599766-1.0921082.83025753-2.2963291.83027316-3.5173179z" fill="#cbcbcb"/><path d="m12.9965889 46.5324298h-12.9965889v1.8566555c0 1.0254026.83125301 1.8566556 1.85665555 1.8566556h9.28327775c1.0254026 0 1.8566556-.831253 1.8566556-1.8566556z" fill="#dbdbdb"/><path d="m45.488061 50.2457409 1.8566556-.9283278 1.8566555.9283278c.0000157 1.2209888.2842755 2.4252097.8302732 3.5173179l.0980546.1959932h-5.5699667l.0980547-.1959932c.5459976-1.0921082.8302575-2.2963291.8302731-3.5173179z" fill="#cbcbcb"/><path d="m53.843011 46.5324298h-12.9965889v1.8566555c0 1.0254026.831253 1.8566556 1.8566556 1.8566556h9.2832777c1.0254026 0 1.8566556-.831253 1.8566556-1.8566556z" fill="#dbdbdb"/><path d="m29.7064888 20.539252h11.1399333v5.5699667h-11.1399333z" fill="#6cbae5"/><path d="m36.2047833 22.3959076h1.8566555v1.8566555h-1.8566555z" fill="#f55648"/><path d="m29.7064888 14.9692854h11.1399333v5.5699666h-11.1399333z" fill="#3775a4"/><path d="m36.2047833 16.8259409h1.8566555v1.8566556h-1.8566555z" fill="#41dfd0"/><path d="m29.7064888 9.39931873h11.1399333v5.56996667h-11.1399333z" fill="#6cbae5"/><path d="m36.2047833 11.2559743h1.8566555v1.8566555h-1.8566555z" fill="#f55648"/><path d="m47.3447166 8.47099095h3.7133111v1.85665555h-3.7133111z" fill="#dbdbdb"/><path d="m43.6314055 8.47099095h1.8566555v1.85665555h-1.8566555z" fill="#dbdbdb"/><path d="m47.3447166 23.3242354c-1.1796526.0015205-2.2308182.744919-2.625311 1.8566555h-35.59580022c-.45212933-1.2788148-1.75979961-2.0459157-3.09665365-1.8165478s-2.31403714 1.3884876-2.31403714 2.7448756.9771831 2.5155077 2.31403714 2.7448756c1.33685404.2293678 2.64452432-.537733 3.09665365-1.8165478h35.59580022c.472116 1.3353456 1.871274 2.1036688 3.2514125 1.7854565s2.301632-1.6215977 2.1413989-3.0288527c-.1602331-1.4072551-1.3511525-2.4701166-2.7675004-2.4699149zm-40.84642217 3.7133111c-.51270127 0-.92832777-.4156265-.92832777-.9283278s.4156265-.9283278.92832777-.9283278.92832778.4156265.92832778.9283278c-.00057555.5124627-.4158651.9277522-.92832778.9283278zm40.84642217 0c-.5127013 0-.9283278-.4156265-.9283278-.9283278s.4156265-.9283278.9283278-.9283278c.5127012 0 .9283277.4156265.9283277.9283278-.0005755.5124627-.415865.9277522-.9283277.9283278z" fill="#3775a4"/></g></g></svg>